<svg width="33" height="14" viewBox="0 0 33 14" fill="none" xmlns="http://www.w3.org/2000/svg">
  <path fill-rule="evenodd" clip-rule="evenodd" d="M18.3644 9.23252C17.9025 10.0325 17.9025 11.0181 18.3644 11.818C18.8263 12.618 19.6794 13.1108 20.6032 13.1108C20.6582 13.1108 20.7125 13.1108 20.7657 13.1108C21.6069 13.1108 22.3844 12.662 22.805 11.9334C22.8188 11.9086 22.8338 11.8837 22.8482 11.8585C23.3175 11.045 24.1857 10.5438 25.125 10.5438C26.0644 10.5438 26.9325 11.045 27.4019 11.8585C27.4019 11.8585 27.4019 11.8585 27.4019 11.8585C27.8494 12.6334 28.6763 13.1108 29.5713 13.1108C30.5107 13.1108 31.3782 12.6096 31.8482 11.7961C32.3175 10.9826 32.3175 9.9804 31.8482 9.1669C30.4738 6.78633 28.73 3.76577 27.3625 1.39765C26.9007 0.598273 26.0482 0.105835 25.125 0.105835C24.2019 0.105835 23.3494 0.598273 22.8875 1.39765C21.5075 3.78758 19.7444 6.84202 18.3644 9.23252Z" fill="white"/>
  <path fill-rule="evenodd" clip-rule="evenodd" d="M9.36441 9.23252C8.90254 10.0325 8.90254 11.0181 9.36441 11.818C9.82629 12.618 10.6794 13.1108 11.6032 13.1108C11.6582 13.1108 11.7125 13.1108 11.7657 13.1108C12.6069 13.1108 13.3844 12.662 13.805 11.9334C13.8188 11.9086 13.8338 11.8837 13.8482 11.8585C14.3175 11.045 15.1857 10.5438 16.125 10.5438C17.0644 10.5438 17.9325 11.045 18.4019 11.8585C18.4019 11.8585 18.4019 11.8585 18.4019 11.8585C18.8494 12.6334 19.6763 13.1108 20.5713 13.1108C21.5107 13.1108 22.3782 12.6096 22.8482 11.7961C23.3175 10.9826 23.3175 9.9804 22.8482 9.1669C21.4738 6.78633 19.73 3.76577 18.3625 1.39765C17.9007 0.598273 17.0482 0.105835 16.125 0.105835C15.2019 0.105835 14.3494 0.598273 13.8875 1.39765C12.5075 3.78758 10.7444 6.84202 9.36441 9.23252Z" fill="url(#paint0_linear)"/>
  <path fill-rule="evenodd" clip-rule="evenodd" d="M0.364414 9.23252C-0.0974607 10.0325 -0.0974607 11.0181 0.364414 11.818C0.826289 12.618 1.67941 13.1108 2.60316 13.1108C2.65816 13.1108 2.71254 13.1108 2.76566 13.1108C3.60691 13.1108 4.38441 12.662 4.80504 11.9334C4.81879 11.9086 4.83379 11.8837 4.84816 11.8585C5.31754 11.045 6.18566 10.5438 7.12504 10.5438C8.06441 10.5438 8.93254 11.045 9.40191 11.8585C9.40191 11.8585 9.40191 11.8585 9.40191 11.8585C9.84941 12.6334 10.6763 13.1108 11.5713 13.1108C12.5107 13.1108 13.3782 12.6096 13.8482 11.7961C14.3175 10.9826 14.3175 9.9804 13.8482 9.1669C12.4738 6.78633 10.73 3.76577 9.36254 1.39765C8.90066 0.598273 8.04816 0.105835 7.12504 0.105835C6.20191 0.105835 5.34941 0.598273 4.88754 1.39765C3.50754 3.78758 1.74441 6.84202 0.364414 9.23252Z" fill="white"/>
  <defs>
    <linearGradient id="paint0_linear" x1="11" y1="12.3085" x2="17.4059" y2="7.91017" gradientUnits="userSpaceOnUse">
      <stop stop-color="#C1C5C9"/>
      <stop offset="1" stop-color="white"/>
    </linearGradient>
  </defs>
</svg>
